HIERARCHY
ROOT Hips
{
  OFFSET -44.4388 94.7082 -292.216
  CHANNELS 6 Xposition Yposition Zposition Zrotation Xrotation Yrotation
  JOINT LeftUpLeg
  {
    OFFSET 8.91 -6.27 -2.145
    CHANNELS 6 Xposition Yposition Zposition Zrotation Xrotation Yrotation
    JOINT LeftUpLegRoll
    {
      OFFSET 0 -22.7323 0
      CHANNELS 6 Xposition Yposition Zposition Zrotation Xrotation Yrotation
      JOINT LeftLeg
      {
        OFFSET 0 -22.1464 0
        CHANNELS 6 Xposition Yposition Zposition Zrotation Xrotation Yrotation
        JOINT LeftLegRoll
        {
          OFFSET 0 -22.0919 0
          CHANNELS 6 Xposition Yposition Zposition Zrotation Xrotation Yrotation
          JOINT LeftFoot
          {
            OFFSET 0 -18.609 0
            CHANNELS 6 Xposition Yposition Zposition Zrotation Xrotation Yrotation
            JOINT LeftToeBase
            {
              OFFSET 0 -6.26232 12.9547
              CHANNELS 6 Xposition Yposition Zposition Zrotation Xrotation Yrotation
              End Site
              {
                OFFSET 0 0 5.96686
              }
            }
          }
        }
      }
    }
  }
  JOINT RightUpLeg
  {
    OFFSET -8.91 -6.27 -2.145
    CHANNELS 6 Xposition Yposition Zposition Zrotation Xrotation Yrotation
    JOINT RightUpLegRoll
    {
      OFFSET 0 -22.7323 0
      CHANNELS 6 Xposition Yposition Zposition Zrotation Xrotation Yrotation
      JOINT RightLeg
      {
        OFFSET 0 -22.1464 0
        CHANNELS 6 Xposition Yposition Zposition Zrotation Xrotation Yrotation
        JOINT RightLegRoll
        {
          OFFSET 0 -22.0919 0
          CHANNELS 6 Xposition Yposition Zposition Zrotation Xrotation Yrotation
          JOINT RightFoot
          {
            OFFSET 0 -18.609 0
            CHANNELS 6 Xposition Yposition Zposition Zrotation Xrotation Yrotation
            JOINT RightToeBase
            {
              OFFSET 0 -6.26232 12.9547
              CHANNELS 6 Xposition Yposition Zposition Zrotation Xrotation Yrotation
              End Site
              {
                OFFSET 0 0.000942417 5.96686
              }
            }
          }
        }
      }
    }
  }
  JOINT Spine
  {
    OFFSET 0 7.43174 -2.06162
    CHANNELS 6 Xposition Yposition Zposition Zrotation Xrotation Yrotation
    JOINT Spine1
    {
      OFFSET -1.68772e-005 12.1899 -1.41951
      CHANNELS 6 Xposition Yposition Zposition Zrotation Xrotation Yrotation
      JOINT Spine2
      {
        OFFSET 0 11.8846 -1.0903
        CHANNELS 6 Xposition Yposition Zposition Zrotation Xrotation Yrotation
        JOINT Spine3
        {
          OFFSET 1.84329e-005 10.5137 1.04001
          CHANNELS 6 Xposition Yposition Zposition Zrotation Xrotation Yrotation
          JOINT LeftShoulder
          {
            OFFSET 7 4.56855 2.0674
            CHANNELS 6 Xposition Yposition Zposition Zrotation Xrotation Yrotation
            JOINT LeftArm
            {
              OFFSET 10.7073 0 0
              CHANNELS 6 Xposition Yposition Zposition Zrotation Xrotation Yrotation
              JOINT LeftArmRoll
              {
                OFFSET 15.2612 0 0
                CHANNELS 6 Xposition Yposition Zposition Zrotation Xrotation Yrotation
                JOINT LeftForeArm
                {
                  OFFSET 12.0443 0 0
                  CHANNELS 6 Xposition Yposition Zposition Zrotation Xrotation Yrotation
                  JOINT LeftForeArmRoll
                  {
                    OFFSET 16.3277 0 0
                    CHANNELS 6 Xposition Yposition Zposition Zrotation Xrotation Yrotation
                    JOINT LeftHand
                    {
                      OFFSET 10.3694 0 0
                      CHANNELS 6 Xposition Yposition Zposition Zrotation Xrotation Yrotation
                      JOINT LeftHandThumb1
                      {
                        OFFSET 4.34876 -0.798502 4.28243
                        CHANNELS 6 Xposition Yposition Zposition Zrotation Xrotation Yrotation
                        JOINT LeftHandThumb2
                        {
                          OFFSET 2.51259 -0.536099 0.707454
                          CHANNELS 6 Xposition Yposition Zposition Zrotation Xrotation Yrotation
                          JOINT LeftHandThumb3
                          {
                            OFFSET 2.54314 0 0
                            CHANNELS 6 Xposition Yposition Zposition Zrotation Xrotation Yrotation
                            JOINT LeftHandThumb4
                            {
                              OFFSET 2.66675 0 0
                              CHANNELS 6 Xposition Yposition Zposition Zrotation Xrotation Yrotation
                              End Site
                              {
                                OFFSET 0 0 0
                              }
                            }
                          }
                        }
                      }
                      JOINT LeftHandIndex1
                      {
                        OFFSET 8.82198 0.199729 3.47167
                        CHANNELS 6 Xposition Yposition Zposition Zrotation Xrotation Yrotation
                        JOINT LeftHandIndex2
                        {
                          OFFSET 4.22532 0 -0.000262656
                          CHANNELS 6 Xposition Yposition Zposition Zrotation Xrotation Yrotation
                          JOINT LeftHandIndex3
                          {
                            OFFSET 2.65394 0 -0.00016516
                            CHANNELS 6 Xposition Yposition Zposition Zrotation Xrotation Yrotation
                            JOINT LeftHandIndex4
                            {
                              OFFSET 1.95822 0 -0.00012217
                              CHANNELS 6 Xposition Yposition Zposition Zrotation Xrotation Yrotation
                              End Site
                              {
                                OFFSET 0 0 0
                              }
                            }
                          }
                        }
                      }
                      JOINT LeftHandMiddle1
                      {
                        OFFSET 8.80988 0.50089 1.30468
                        CHANNELS 6 Xposition Yposition Zposition Zrotation Xrotation Yrotation
                        JOINT LeftHandMiddle2
                        {
                          OFFSET 4.86325 0 0
                          CHANNELS 6 Xposition Yposition Zposition Zrotation Xrotation Yrotation
                          JOINT LeftHandMiddle3
                          {
                            OFFSET 2.76524 0 0
                            CHANNELS 6 Xposition Yposition Zposition Zrotation Xrotation Yrotation
                            JOINT LeftHandMiddle4
                            {
                              OFFSET 2.00563 0 0
                              CHANNELS 6 Xposition Yposition Zposition Zrotation Xrotation Yrotation
                              End Site
                              {
                                OFFSET 0 0 0
                              }
                            }
                          }
                        }
                      }
                      JOINT LeftHandRing1
                      {
                        OFFSET 8.89376 0.37992 -0.793159
                        CHANNELS 6 Xposition Yposition Zposition Zrotation Xrotation Yrotation
                        JOINT LeftHandRing2
                        {
                          OFFSET 4.53776 0 -0.000282138
                          CHANNELS 6 Xposition Yposition Zposition Zrotation Xrotation Yrotation
                          JOINT LeftHandRing3
                          {
                            OFFSET 2.30453 0 -0.000143448
                            CHANNELS 6 Xposition Yposition Zposition Zrotation Xrotation Yrotation
                            JOINT LeftHandRing4
                            {
                              OFFSET 1.92335 0 -0.00012044
                              CHANNELS 6 Xposition Yposition Zposition Zrotation Xrotation Yrotation
                              End Site
                              {
                                OFFSET 0 0 0
                              }
                            }
                          }
                        }
                      }
                      JOINT LeftHandPinky1
                      {
                        OFFSET 8.88227 -0.313027 -2.49036
                        CHANNELS 6 Xposition Yposition Zposition Zrotation Xrotation Yrotation
                        JOINT LeftHandPinky2
                        {
                          OFFSET 3.0441 0 0
                          CHANNELS 6 Xposition Yposition Zposition Zrotation Xrotation Yrotation
                          JOINT LeftHandPinky3
                          {
                            OFFSET 1.9745 0 0
                            CHANNELS 6 Xposition Yposition Zposition Zrotation Xrotation Yrotation
                            JOINT LeftHandPinky4
                            {
                              OFFSET 1.66661 0 0
                              CHANNELS 6 Xposition Yposition Zposition Zrotation Xrotation Yrotation
                              End Site
                              {
                                OFFSET 0 0 0
                              }
                            }
                          }
                        }
                      }
                    }
                  }
                }
              }
            }
          }
          JOINT RightShoulder
          {
            OFFSET -7 4.56855 2.0673
            CHANNELS 6 Xposition Yposition Zposition Zrotation Xrotation Yrotation
            JOINT RightArm
            {
              OFFSET -10.7073 0 0
              CHANNELS 6 Xposition Yposition Zposition Zrotation Xrotation Yrotation
              JOINT RightArmRoll
              {
                OFFSET -15.2612 0 0
                CHANNELS 6 Xposition Yposition Zposition Zrotation Xrotation Yrotation
                JOINT RightForeArm
                {
                  OFFSET -12.0444 0 0
                  CHANNELS 6 Xposition Yposition Zposition Zrotation Xrotation Yrotation
                  JOINT RightForeArmRoll
                  {
                    OFFSET -16.3276 0 0
                    CHANNELS 6 Xposition Yposition Zposition Zrotation Xrotation Yrotation
                    JOINT RightHand
                    {
                      OFFSET -10.3694 0 0
                      CHANNELS 6 Xposition Yposition Zposition Zrotation Xrotation Yrotation
                      JOINT RightHandThumb1
                      {
                        OFFSET -4.34838 -0.798501 4.28282
                        CHANNELS 6 Xposition Yposition Zposition Zrotation Xrotation Yrotation
                        JOINT RightHandThumb2
                        {
                          OFFSET -2.51253 -0.536099 0.707679
                          CHANNELS 6 Xposition Yposition Zposition Zrotation Xrotation Yrotation
                          JOINT RightHandThumb3
                          {
                            OFFSET -2.54159 0 0.0888232
                            CHANNELS 6 Xposition Yposition Zposition Zrotation Xrotation Yrotation
                            JOINT RightHandThumb4
                            {
                              OFFSET -2.66512 0 0.0931403
                              CHANNELS 6 Xposition Yposition Zposition Zrotation Xrotation Yrotation
                              End Site
                              {
                                OFFSET 0 0 0
                              }
                            }
                          }
                        }
                      }
                      JOINT RightHandIndex1
                      {
                        OFFSET -8.82167 0.199732 3.47246
                        CHANNELS 6 Xposition Yposition Zposition Zrotation Xrotation Yrotation
                        JOINT RightHandIndex2
                        {
                          OFFSET -4.22532 0 0.0001146
                          CHANNELS 6 Xposition Yposition Zposition Zrotation Xrotation Yrotation
                          JOINT RightHandIndex3
                          {
                            OFFSET -2.65394 0 7.19601e-005
                            CHANNELS 6 Xposition Yposition Zposition Zrotation Xrotation Yrotation
                            JOINT RightHandIndex4
                            {
                              OFFSET -1.95822 0 5.30956e-005
                              CHANNELS 6 Xposition Yposition Zposition Zrotation Xrotation Yrotation
                              End Site
                              {
                                OFFSET 0 0 0
                              }
                            }
                          }
                        }
                      }
                      JOINT RightHandMiddle1
                      {
                        OFFSET -8.80976 0.500893 1.30547
                        CHANNELS 6 Xposition Yposition Zposition Zrotation Xrotation Yrotation
                        JOINT RightHandMiddle2
                        {
                          OFFSET -4.86325 0 0.000131881
                          CHANNELS 6 Xposition Yposition Zposition Zrotation Xrotation Yrotation
                          JOINT RightHandMiddle3
                          {
                            OFFSET -2.76524 0 7.49854e-005
                            CHANNELS 6 Xposition Yposition Zposition Zrotation Xrotation Yrotation
                            JOINT RightHandMiddle4
                            {
                              OFFSET -2.00563 0 5.43888e-005
                              CHANNELS 6 Xposition Yposition Zposition Zrotation Xrotation Yrotation
                              End Site
                              {
                                OFFSET 0 0 0
                              }
                            }
                          }
                        }
                      }
                      JOINT RightHandRing1
                      {
                        OFFSET -8.89383 0.379922 -0.792364
                        CHANNELS 6 Xposition Yposition Zposition Zrotation Xrotation Yrotation
                        JOINT RightHandRing2
                        {
                          OFFSET -4.53776 0 0.000123049
                          CHANNELS 6 Xposition Yposition Zposition Zrotation Xrotation Yrotation
                          JOINT RightHandRing3
                          {
                            OFFSET -2.30453 0 6.24859e-005
                            CHANNELS 6 Xposition Yposition Zposition Zrotation Xrotation Yrotation
                            JOINT RightHandRing4
                            {
                              OFFSET -1.92335 0 5.21537e-005
                              CHANNELS 6 Xposition Yposition Zposition Zrotation Xrotation Yrotation
                              End Site
                              {
                                OFFSET 0 0 0
                              }
                            }
                          }
                        }
                      }
                      JOINT RightHandPinky1
                      {
                        OFFSET -8.8825 -0.313025 -2.48956
                        CHANNELS 6 Xposition Yposition Zposition Zrotation Xrotation Yrotation
                        JOINT RightHandPinky2
                        {
                          OFFSET -3.0478 0 8.26466e-005
                          CHANNELS 6 Xposition Yposition Zposition Zrotation Xrotation Yrotation
                          JOINT RightHandPinky3
                          {
                            OFFSET -1.9769 0 5.36145e-005
                            CHANNELS 6 Xposition Yposition Zposition Zrotation Xrotation Yrotation
                            JOINT RightHandPinky4
                            {
                              OFFSET -1.66864 0 4.5245e-005
                              CHANNELS 6 Xposition Yposition Zposition Zrotation Xrotation Yrotation
                              End Site
                              {
                                OFFSET 0 0 0
                              }
                            }
                          }
                        }
                      }
                    }
                  }
                }
              }
            }
          }
          JOINT Neck
          {
            OFFSET 0 11.5156 1.94702
            CHANNELS 6 Xposition Yposition Zposition Zrotation Xrotation Yrotation
            JOINT Head
            {
              OFFSET -1.26215e-005 11.0733 1.65432
              CHANNELS 6 Xposition Yposition Zposition Zrotation Xrotation Yrotation
              End Site
              {
                OFFSET 0 17.7047 0
              }
            }
          }
        }
      }
    }
  }
}
MOTION
Frames:	2
Frame Time:	0.0333333
-41.5129 95.8484 160.304 -0.150884 -0.315978 0.895593 8.91 -6.27 -2.145 10.6686 -18.8946 8.66839 -8.88178e-015 -22.7323 -4.71169e-007 2.28305e-019 -4.00237e-017 0.653651 -1.24345e-014 -22.1464 5.17666e-008 4.4718e-007 35.9169 -6.07419 -8.88178e-015 -22.0919 1.36431e-008 1.91439e-020 -1.159e-017 0.189279 -1.42109e-014 -18.609 1.69696e-008 -1.75137 -14.2119 -0.218346 5.32907e-015 -6.26232 12.9547 -4.2906e-007 -1.04696e-007 -7.84018e-016 -8.91 -6.27 -2.145 -1.05473 -17.7648 -3.23655 -2.71633e-006 -22.7323 -4.51374e-007 1.12026e-019 2.80364e-017 -0.457874 -4.24549e-013 -22.1464 1.4554e-008 -5.58416e-007 36.8988 4.47982 9.19562e-007 -22.0919 4.09714e-008 1.59433e-020 1.05768e-017 -0.172733 -3.606e-013 -18.609 -7.98564e-010 -1.39189 -16.7313 -0.209348 -6.4416e-011 -6.26232 12.9547 -0.366008 -0.116729 -0.00074568 2.32301e-006 7.43174 -2.06162 0.0432739 2.09595 0.42921 -1.68772e-005 12.1899 -1.41951 -0.191466 0.304958 0.333492 -3.87879e-006 11.8846 -1.0903 -0.197516 0.305874 0.328917 1.84329e-005 10.5137 1.04001 -0.203434 0.306847 0.324186 7 4.56855 2.0674 -14.7537 0 -1.52718 10.7073 -5.08749e-012 -5.32907e-015 -54.5406 -1.06828 3.00288 15.2612 3.95062e-012 1.16365e-008 0 -0.349477 0 12.0443 -1.25056e-012 2.87898e-009 33.1034 45.9465 -42.2134 16.3277 2.84217e-012 -1.18649e-008 0 -0.00344928 0 10.3694 3.12639e-013 2.29894e-008 -2.54108 0.184632 -8.31014 4.34876 -0.798502 4.28243 -13.3856 2.3998 -6.18214 2.51259 -0.536099 0.707454 -12.8446 -0.444785 1.94993 2.54314 9.9476e-013 9.34198e-006 5.66012 0 0 2.66675 -1.27898e-012 -8.21025e-006 -0 0 0 8.82198 0.199729 3.47167 -0.275035 -0.00960439 -2.20636 4.22532 4.83737e-011 -0.000262656 -20.9332 0 0 2.65394 2.98712e-011 -0.00016516 3.88105 0 0 1.95822 2.2311e-011 -0.00012217 -0 0 0 8.80988 0.50089 1.30468 3.75699 0.131103 -0.0642168 4.86325 1.10845e-012 6.11217e-012 -18.7937 0 0 2.76524 3.69482e-013 -1.91784e-007 -42.6629 0 0 2.00563 -8.52651e-013 -1.13863e-006 -0 0 0 8.89376 0.37992 -0.793159 3.77088 0.131587 3.93296 4.53776 8.2423e-013 -0.000282138 -19.8372 0 0 2.30453 0 -0.000143448 -12.6595 0 0 1.92335 -4.26326e-013 -0.00012044 -0 0 0 8.88227 -0.313027 -2.49036 0.0754817 0.00263588 9.36545 3.0441 -2.04636e-012 1.33227e-015 -10.9086 0 0 1.9745 2.84217e-013 -1.43329e-007 -1.76129 0 0 1.66661 1.64846e-012 7.91347e-007 -0 0 0 -7 4.56855 2.0673 22.0928 1.93352e-015 17.5911 -10.7073 5.20117e-012 2.04281e-014 45.3792 -1.26772 -0.947696 -15.2612 -6.33804e-012 1.86659e-008 1.87146e-016 1.54872 1.87146e-016 -12.0444 -8.46967e-012 -7.98782e-009 -17.7817 23.7721 38.5064 -16.3276 -1.11982e-011 -2.36264e-008 -7.46412e-006 -0.00496411 -2.70878e-006 -10.3694 -8.52651e-014 1.64166e-008 -5.191 -0.251716 5.54853 -4.34838 -0.798501 4.28282 13.5073 2.38409 6.41187 -2.51253 -0.536099 0.707679 12.348 -0.427862 -1.95372 -2.54159 2.76827e-011 0.0888232 -4.39807 0 0 -2.66512 1.86731e-011 0.0931403 0 0 -0 -8.82167 0.199732 3.47246 8.71458 -0.303145 -0.173323 -4.22532 2.47269e-012 0.0001146 28.7933 0 0 -2.65394 1.39266e-012 7.19601e-005 3.88006 0 0 -1.95822 1.36424e-012 5.30956e-005 0 0 -0 -8.80976 0.500893 1.30547 3.4711 -0.121139 1.15624 -4.86325 -1.3074e-012 0.000131881 23.5013 0 0 -2.76524 1.76215e-012 7.49854e-005 47.433 0 0 -2.00563 0 5.43888e-005 0 0 -0 -8.89383 0.379922 -0.792364 3.68339 -0.128538 -3.11668 -4.53776 4.09273e-012 0.000123049 24.9363 0 0 -2.30453 4.12115e-012 6.24859e-005 17.8852 0 0 -1.92335 7.38964e-013 5.21537e-005 0 0 -0 -8.8825 -0.313025 -2.48956 9.22164 -0.320635 -7.99606 -3.0478 -6.65921e-011 8.26466e-005 19.2003 0 0 -1.9769 -3.85683e-011 5.36145e-005 10.5146 0 0 -1.66864 -3.54419e-011 4.5245e-005 0 0 -0 2.32301e-006 11.5156 1.94702 -0.944938 10.2154 0.146689 -1.26215e-005 11.0733 1.65432 6.15065 5.77295 -1.72295 
-40.7706 95.7662 161.067 -0.530716 -0.452767 -0.00202005 8.91 -6.27 -2.145 10.4843 -17.5976 8.34979 -8.88178e-015 -22.7323 -4.71169e-007 2.86583e-019 -4.48418e-017 0.732342 -1.24345e-014 -22.1464 5.17666e-008 1.95098e-007 35.2317 -5.21755 -8.88178e-015 -22.0919 1.36431e-008 3.12132e-020 -1.47991e-017 0.241688 -1.42109e-014 -18.609 1.69696e-008 -2.9157 -14.3757 -0.367788 5.32907e-015 -6.26232 12.9547 0.181821 -0.306871 0.000973819 -8.91 -6.27 -2.145 -1.15362 -17.2457 -3.1682 -2.71633e-006 -22.7323 -4.51374e-007 7.43543e-020 2.28411e-017 -0.373026 -4.24549e-013 -22.1464 1.4554e-008 -9.65819e-007 37.0152 5.31837 9.19562e-007 -22.0919 4.09714e-008 9.84524e-021 8.3115e-018 -0.135737 -3.606e-013 -18.609 -7.98564e-010 -1.16422 -17.2243 -0.180993 -6.4416e-011 -6.26232 12.9547 -0.412193 -0.13134 -0.000944891 2.32301e-006 7.43174 -2.06162 0.575236 2.21712 0.265903 -1.68772e-005 12.1899 -1.41951 0.0952955 0.514261 0.197412 -3.87879e-006 11.8846 -1.0903 0.0920303 0.515039 0.19684 1.84329e-005 10.5137 1.04001 0.0887899 0.515827 0.196166 7 4.56855 2.0674 -15.0662 0 -1.91622 10.7073 -5.08749e-012 -5.32907e-015 -53.993 -0.488795 0.622082 15.2612 3.95062e-012 1.16365e-008 0 -0.368779 0 12.0443 -1.25056e-012 2.87898e-009 32.1005 45.0309 -41.5626 16.3277 2.84217e-012 -1.18649e-008 0 -0.00324453 0 10.3694 3.12639e-013 2.29894e-008 -1.18118 0.0871048 -8.43485 4.34876 -0.798502 4.28243 -13.4064 2.39706 -6.22066 2.51259 -0.536099 0.707454 -12.8561 -0.445177 1.94984 2.54314 9.9476e-013 9.34198e-006 5.58993 0 0 2.66675 -1.27898e-012 -8.21025e-006 -0 0 0 8.82198 0.199729 3.47167 -0.66685 -0.0232864 -1.74901 4.22532 4.83737e-011 -0.000262656 -21.3023 0 0 2.65394 2.98712e-011 -0.00016516 3.51953 0 0 1.95822 2.2311e-011 -0.00012217 -0 0 0 8.80988 0.50089 1.30468 3.36885 0.117575 -0.0110676 4.86325 1.10845e-012 6.11217e-012 -18.9342 0 0 2.76524 3.69482e-013 -1.91784e-007 -42.8046 0 0 2.00563 -8.52651e-013 -1.13863e-006 -0 0 0 8.89376 0.37992 -0.793159 3.27342 0.114248 4.00853 4.53776 8.2423e-013 -0.000282138 -20.0338 0 0 2.30453 0 -0.000143448 -12.8574 0 0 1.92335 -4.26326e-013 -0.00012044 -0 0 0 8.88227 -0.313027 -2.49036 -0.539429 -0.018837 9.36578 3.0441 -2.04636e-012 1.33227e-015 -11.7397 0 0 1.9745 2.84217e-013 -1.43329e-007 -2.61261 0 0 1.66661 1.64846e-012 7.91347e-007 -0 0 0 -7 4.56855 2.0673 22.5057 1.93088e-015 17.6986 -10.7073 5.20117e-012 2.04281e-014 45.8837 -0.767101 -2.47425 -15.2612 -6.33804e-012 1.86659e-008 1.65506e-016 1.36753 1.65506e-016 -12.0444 -8.46967e-012 -7.98782e-009 -19.2859 27.447 37.2043 -16.3276 -1.11982e-011 -2.36264e-008 -7.46778e-006 -0.0824473 -2.70878e-006 -10.3694 -8.52651e-014 1.64166e-008 -3.89873 -0.221812 6.51001 -4.34838 -0.798501 4.28282 13.4957 2.38568 6.39015 -2.51253 -0.536099 0.707679 12.3651 -0.428447 -1.95359 -2.54159 2.76827e-011 0.0888232 -4.35823 0 0 -2.66512 1.86731e-011 0.0931403 0 0 -0 -8.82167 0.199732 3.47246 8.9447 -0.311086 -0.629727 -4.22532 2.47269e-012 0.0001146 29.3579 0 0 -2.65394 1.39266e-012 7.19601e-005 4.43797 0 0 -1.95822 1.36424e-012 5.30956e-005 0 0 -0 -8.80976 0.500893 1.30547 3.72863 -0.130114 1.1308 -4.86325 -1.3074e-012 0.000131881 23.8725 0 0 -2.76524 1.76215e-012 7.49854e-005 47.8059 0 0 -2.00563 0 5.43888e-005 0 0 -0 -8.89383 0.379922 -0.792364 3.9553 -0.138012 -3.16543 -4.53776 4.09273e-012 0.000123049 25.3378 0 0 -2.30453 4.12115e-012 6.24859e-005 18.2908 0 0 -1.92335 7.38964e-013 5.21537e-005 0 0 -0 -8.8825 -0.313025 -2.48956 9.68309 -0.33653 -7.99747 -3.0478 -6.65921e-011 8.26466e-005 20.125 0 0 -1.9769 -3.85683e-011 5.36145e-005 11.4747 0 0 -1.66864 -3.54419e-011 4.5245e-005 0 0 -0 2.32301e-006 11.5156 1.94702 -2.16374 9.47042 0.869586 -1.26215e-005 11.0733 1.65432 6.23355 5.75709 -1.12014 
